# xmcd
#
# Track frame offsets:
#	150
#	9435
#	18090
#	29168
#	37358
#	49538
#	60451
#	70936
#	82959
#	91247
#	98890
#	110860
#
# Disc length: 1597 seconds
#
# Revision: 1
# Processed by: cddbd v1.5.2PL0 Copyright (c) Steve Scherf et al.
# Submitted via: audiograbber 1.83.01
#
DISCID=98063b0c
DTITLE=Buck Owens - I Don't Care
DYEAR=1964
DGENRE=Country
TTITLE0=I Don't Care
TTITLE1=Dang Me
TTITLE2=Don't Let Her Know
TTITLE3=Buck's Polka
TTITLE4=Understand Your Man
TTITLE5=Loose Talk
TTITLE6=You're Welcome Anytime
TTITLE7=Abilene
TTITLE8=Playboy
TTITLE9=Bud's Bounce
TTITLE10=Louisiana Man
TTITLE11=This Ol' Heart
EXTD=
EXTT0=
EXTT1=
EXTT2=
EXTT3=
EXTT4=
EXTT5=
EXTT6=
EXTT7=
EXTT8=
EXTT9=
EXTT10=
EXTT11=
PLAYORDER=
